<?xml version="1.0" encoding="UTF-8" standalone="no"?>
<!DOCTYPE svg PUBLIC "-//W3C//DTD SVG 1.1//EN" "http://www.w3.org/Graphics/SVG/1.1/DTD/svg11.dtd">
<svg xmlns="http://www.w3.org/2000/svg" version="1.1" viewBox="0 0 381 380">
<g stroke-width="2.00" fill="none" stroke-linecap="butt">
<path stroke="#b9b9cb" vector-effect="non-scaling-stroke" d="
  M 182.80 31.79
  Q 180.87 37.57 181.33 43.76
  C 181.82 50.44 187.81 52.06 192.94 53.73
  Q 195.68 54.63 198.26 53.34
  C 210.46 47.23 206.25 31.97 198.82 24.21"
/>
<path stroke="#dad9e4" vector-effect="non-scaling-stroke" d="
  M 198.82 24.21
  C 193.08 18.79 184.95 26.56 182.80 31.79"
/>
<path stroke="#9493af" vector-effect="non-scaling-stroke" d="
  M 198.82 24.21
  Q 194.62 23.62 192.19 24.69
  Q 187.58 26.71 182.80 31.79"
/>
<path stroke="#d3d3de" vector-effect="non-scaling-stroke" d="
  M 115.32 38.39
  Q 103.02 44.81 106.25 59.04"
/>
<path stroke="#b9b9cb" vector-effect="non-scaling-stroke" d="
  M 106.25 59.04
  C 108.12 67.95 110.81 74.34 118.94 78.31
  C 124.89 81.22 133.07 83.40 139.15 80.25
  C 141.82 78.85 149.41 71.65 142.25 70.21"
/>
<path stroke="#ccccd9" vector-effect="non-scaling-stroke" d="
  M 142.25 70.21
  C 139.34 69.34 135.51 73.54 132.73 75.08
  A 3.71 3.70 -51.4 0 1 129.90 75.40
  Q 123.54 73.57 117.54 70.00"
/>
<path stroke="#b9b9cb" vector-effect="non-scaling-stroke" d="
  M 117.54 70.00
  C 111.35 64.32 111.76 55.75 114.00 48.75
  C 116.43 41.16 124.34 43.43 131.11 44.97"
/>
<path stroke="#d3d3de" vector-effect="non-scaling-stroke" d="
  M 131.11 44.97
  Q 137.85 48.50 144.08 52.67
  Q 144.40 52.88 144.75 52.96
  A 1.80 0.74 1.6 0 1 145.61 53.34
  L 158.78 65.94"
/>
<path stroke="#b9b9cb" vector-effect="non-scaling-stroke" d="
  M 158.78 65.94
  C 161.68 70.62 165.91 73.27 168.64 77.69
  C 179.30 94.95 185.18 113.52 192.28 131.97
  Q 194.42 137.52 195.64 143.43
  C 198.32 156.44 202.88 171.77 200.19 184.99
  Q 198.46 193.47 196.92 202.47
  Q 196.60 204.33 198.47 204.54
  Q 200.13 204.73 201.50 202.53
  Q 207.41 193.11 207.95 182.07
  C 208.07 179.48 208.55 175.71 207.94 172.56
  C 206.97 167.60 206.28 163.39 205.98 158.84
  Q 205.79 155.75 204.31 152.69
  C 201.08 145.97 200.86 138.47 199.09 132.35
  C 196.64 123.90 192.17 115.26 189.33 107.96
  Q 183.60 93.24 176.44 81.06
  C 174.75 78.20 174.17 75.36 172.25 73.10
  C 165.66 65.33 155.69 52.03 145.94 46.92
  C 142.10 44.91 138.28 42.24 134.84 40.92
  Q 125.68 37.39 115.32 38.39"
/>
<path stroke="#8d8daa" vector-effect="non-scaling-stroke" d="
  M 158.78 65.94
  C 156.67 61.92 153.02 59.03 150.36 56.41
  Q 142.21 48.38 131.11 44.97"
/>
<path stroke="#8686a5" vector-effect="non-scaling-stroke" d="
  M 117.54 70.00
  Q 121.25 74.45 126.00 75.50
  Q 128.26 76.00 129.39 76.92
  A 1.72 1.21 58.5 0 0 130.25 77.29
  Q 136.82 77.64 139.56 71.56
  Q 140.29 69.96 142.25 70.21"
/>
<path stroke="#8d8daa" vector-effect="non-scaling-stroke" d="
  M 106.25 59.04
  C 106.83 54.68 107.01 49.24 108.84 45.63
  Q 111.05 41.29 115.32 38.39"
/>
<path stroke="#bbbbca" vector-effect="non-scaling-stroke" d="
  M 211.66 112.85
  Q 211.03 119.95 211.81 122.94
  C 212.11 124.09 218.12 139.95 222.76 134.73
  C 225.56 131.58 219.22 128.16 218.75 125.50
  C 215.39 106.63 223.49 86.87 237.93 74.68
  C 248.43 65.81 255.73 58.23 270.96 60.50"
/>
<path stroke="#c1c1ce" vector-effect="non-scaling-stroke" d="
  M 270.96 60.50
  Q 280.05 63.06 286.90 69.86"
/>
<path stroke="#bbbbca" vector-effect="non-scaling-stroke" d="
  M 286.90 69.86
  Q 287.78 71.51 288.95 72.94
  C 293.87 78.95 291.47 84.28 290.96 90.25"
/>
<path stroke="#dad9e4" vector-effect="non-scaling-stroke" d="
  M 290.96 90.25
  L 288.75 95.46"
/>
<path stroke="#dad9e4" vector-effect="non-scaling-stroke" d="
  M 288.75 95.46
  C 287.00 98.81 284.15 101.75 282.10 104.50
  C 279.33 108.22 270.48 117.54 266.54 110.50"
/>
<path stroke="#bbbbca" vector-effect="non-scaling-stroke" d="
  M 266.54 110.50
  C 265.11 105.58 264.40 96.48 271.25 95.00
  Q 274.84 94.23 272.75 90.96"
/>
<path stroke="#dad9e4" vector-effect="non-scaling-stroke" d="
  M 272.75 90.96
  C 270.69 85.42 265.34 89.62 263.50 92.96"
/>
<path stroke="#bbbbca" vector-effect="non-scaling-stroke" d="
  M 263.50 92.96
  C 259.88 99.58 256.79 107.91 261.81 114.94
  C 266.53 121.54 270.86 119.75 277.16 117.24
  C 283.35 114.78 288.67 106.02 292.27 101.27
  C 295.80 96.63 296.39 92.00 297.11 86.12
  C 299.12 69.90 286.76 58.38 272.02 54.74"
/>
<path stroke="#d3d3de" vector-effect="non-scaling-stroke" d="
  M 272.02 54.74
  C 261.11 50.96 247.93 57.22 239.84 64.21
  Q 237.90 65.88 234.22 68.78
  C 230.82 71.46 228.56 74.70 225.91 77.59
  C 220.72 83.24 217.32 91.71 214.23 98.70
  Q 211.25 105.44 211.66 112.85"
/>
<path stroke="#8f8fa9" vector-effect="non-scaling-stroke" d="
  M 272.02 54.74
  Q 269.12 55.42 266.17 55.42
  C 253.01 55.41 243.92 62.75 234.32 70.92
  Q 229.37 75.13 225.19 80.19
  Q 223.10 82.71 216.06 98.06
  Q 213.18 104.36 211.66 112.85"
/>
<path stroke="#9595af" vector-effect="non-scaling-stroke" d="
  M 263.50 92.96
  C 266.43 91.37 269.17 88.58 272.75 90.96"
/>
<path stroke="#9595af" vector-effect="non-scaling-stroke" d="
  M 266.54 110.50
  Q 266.04 114.73 270.64 114.75
  Q 272.67 114.76 274.44 113.76
  C 278.77 111.31 282.57 106.21 285.69 102.73
  C 287.75 100.42 287.82 97.65 289.75 95.04"
/>
<path stroke="#9595af" vector-effect="non-scaling-stroke" d="
  M 289.75 95.04
  Q 291.23 92.88 290.96 90.25"
/>
<path stroke="#7d7c99" vector-effect="non-scaling-stroke" d="
  M 286.90 69.86
  Q 282.41 61.07 272.25 60.25
  Q 271.43 59.62 270.96 60.50"
/>
<path stroke="#b4b3c8" vector-effect="non-scaling-stroke" d="
  M 289.75 95.04
  Q 289.30 95.42 288.75 95.46"
/>
<path stroke="#b9b9cb" vector-effect="non-scaling-stroke" d="
  M 68.03 140.78
  Q 59.19 158.39 67.94 175.31
  Q 73.77 186.58 86.04 187.51
  C 91.99 187.96 99.46 187.20 104.44 183.94
  C 108.39 181.35 114.84 176.72 115.25 170.75
  Q 115.56 166.29 111.50 165.29"
/>
<path stroke="#dad9e4" vector-effect="non-scaling-stroke" d="
  M 111.50 165.29
  C 105.42 166.34 106.77 171.77 103.77 175.66
  C 99.93 180.61 91.88 182.04 86.00 181.54"
/>
<path stroke="#b9b9cb" vector-effect="non-scaling-stroke" d="
  M 86.00 181.54
  C 77.92 180.02 72.41 174.93 70.24 166.95
  C 67.19 155.77 70.69 146.45 79.38 139.18
  Q 81.38 137.50 83.99 137.50
  Q 87.54 137.50 90.57 135.73
  C 95.49 132.86 107.52 136.59 112.27 138.33
  C 116.54 139.90 120.60 139.54 124.82 141.31
  Q 132.74 144.63 140.30 148.70
  C 144.79 151.11 148.47 154.76 152.55 158.00
  Q 155.22 160.12 157.13 162.81
  C 163.17 171.34 168.29 176.56 172.31 184.94
  C 176.98 194.65 183.61 205.49 181.50 215.25
  Q 180.74 218.76 182.04 221.75"
/>
<path stroke="#dad9e4" vector-effect="non-scaling-stroke" d="
  M 182.04 221.75
  Q 184.42 226.02 186.71 221.50"
/>
<path stroke="#b9b9cb" vector-effect="non-scaling-stroke" d="
  M 186.71 221.50
  C 190.64 214.49 187.48 200.40 183.15 192.90
  C 179.65 186.83 176.78 180.01 172.74 174.33
  C 169.99 170.48 164.98 165.44 162.00 159.91
  Q 160.43 157.01 158.60 155.29
  Q 145.54 143.02 128.90 136.90
  C 117.99 132.89 106.76 129.76 95.29 129.45"
/>
<path stroke="#dad9e4" vector-effect="non-scaling-stroke" d="
  M 95.29 129.45
  Q 78.32 127.89 68.03 140.78"
/>
<path stroke="#9493af" vector-effect="non-scaling-stroke" d="
  M 95.29 129.45
  Q 92.91 129.78 90.56 130.11
  C 87.48 130.53 84.03 132.10 80.50 133.25
  Q 75.43 134.91 68.03 140.78"
/>
<path stroke="#9493af" vector-effect="non-scaling-stroke" d="
  M 186.71 221.50
  L 182.04 221.75"
/>
<path stroke="#9493af" vector-effect="non-scaling-stroke" d="
  M 86.00 181.54
  C 93.48 184.60 106.84 180.51 109.39 172.11
  Q 110.43 168.70 111.50 165.29"
/>
<path stroke="#bbbbca" vector-effect="non-scaling-stroke" d="
  M 223.50 201.29
  C 226.58 195.40 229.46 189.54 233.60 184.45
  C 245.27 170.09 259.38 157.67 277.20 152.40
  Q 279.56 151.70 281.62 150.66
  C 288.93 146.99 299.06 147.28 307.00 148.21"
/>
<path stroke="#d3d3de" vector-effect="non-scaling-stroke" d="
  M 307.00 148.21
  C 313.13 150.88 318.01 151.17 323.36 153.29
  C 328.77 155.44 332.21 159.65 334.75 164.69
  C 338.53 172.20 333.34 182.63 328.06 188.16"
/>
<path stroke="#bbbbca" vector-effect="non-scaling-stroke" d="
  M 328.06 188.16
  C 322.86 194.41 310.54 204.74 301.94 197.31
  C 295.03 191.35 295.09 180.44 304.80 177.27
  Q 307.10 176.51 307.28 173.91"
/>
<path stroke="#d3d3de" vector-effect="non-scaling-stroke" d="
  M 307.28 173.91
  Q 307.68 172.01 306.60 170.34
  A 1.54 1.34 -3.9 0 0 305.85 169.77
  C 298.77 167.28 293.13 173.67 292.54 180.25"
/>
<path stroke="#bbbbca" vector-effect="non-scaling-stroke" d="
  M 292.54 180.25
  C 291.17 188.60 293.41 198.84 301.04 203.37
  C 307.96 207.48 319.11 204.94 324.94 199.69
  Q 333.81 191.70 340.04 180.74
  C 344.35 173.16 341.33 166.56 338.23 159.12
  C 336.05 153.86 332.71 151.59 327.81 149.19
  Q 316.35 143.57 304.52 142.55"
/>
<path stroke="#ccccd9" vector-effect="non-scaling-stroke" d="
  M 304.52 142.55
  Q 293.90 141.61 283.29 142.40
  Q 280.00 142.64 276.85 144.03
  C 268.71 147.63 257.67 152.02 251.15 158.09
  Q 246.35 162.56 241.24 166.68
  C 234.19 172.36 228.64 180.30 223.26 187.52
  Q 215.08 198.51 214.99 212.23
  C 214.97 214.97 214.00 219.45 218.85 217.28
  A 1.09 0.94 87.8 0 0 219.41 216.58
  L 223.50 201.29"
/>
<path stroke="#8887a4" vector-effect="non-scaling-stroke" d="
  M 304.52 142.55
  L 281.32 144.52
  A 1.52 1.40 -66.8 0 0 280.45 144.91
  C 277.06 148.10 273.59 146.96 270.17 148.95
  C 266.52 151.07 263.14 152.82 258.85 154.55
  C 253.86 156.56 251.04 160.56 247.52 163.28
  C 242.54 167.13 237.10 170.17 233.86 175.84
  Q 232.86 177.58 230.06 180.56
  Q 223.05 188.03 219.23 198.84
  A 1.44 0.77 -81.8 0 1 218.66 199.61
  L 217.54 200.17
  A 0.93 0.57 -19.0 0 0 217.02 200.80
  Q 216.92 203.39 219.90 205.49
  A 1.11 1.10 22.8 0 0 221.63 204.79
  Q 221.94 203.10 223.50 201.29"
/>
<path stroke="#8f8fa9" vector-effect="non-scaling-stroke" d="
  M 292.54 180.25
  C 294.42 177.07 298.42 171.28 302.32 170.86
  Q 305.63 170.50 307.28 173.91"
/>
<path stroke="#8f8fa9" vector-effect="non-scaling-stroke" d="
  M 328.06 188.16
  Q 341.29 178.18 335.31 162.94
  C 332.85 156.65 328.21 153.57 322.07 151.45
  C 318.94 150.36 315.64 150.24 312.29 149.04
  C 310.31 148.33 309.31 147.36 307.00 148.21"
/>
<path stroke="#afafc7" vector-effect="non-scaling-stroke" d="
  M 107.54 268.50
  Q 106.93 269.78 107.33 271.82"
/>
<path stroke="#dad9e4" vector-effect="non-scaling-stroke" d="
  M 107.33 271.82
  Q 103.64 272.43 101.56 271.69
  Q 97.32 270.17 93.75 270.54"
/>
<path stroke="#afafc7" vector-effect="non-scaling-stroke" d="
  M 93.75 270.54
  Q 93.26 270.62 93.00 270.29"
/>
<path stroke="#ccccd9" vector-effect="non-scaling-stroke" d="
  M 93.00 270.29
  Q 92.29 269.05 90.75 269.29"
/>
<path stroke="#afafc7" vector-effect="non-scaling-stroke" d="
  M 90.75 269.29
  Q 84.35 267.40 78.25 269.96"
/>
<path stroke="#9797b4" vector-effect="non-scaling-stroke" d="
  M 78.25 269.96
  C 67.95 273.66 60.38 283.91 58.98 294.73
  C 57.68 304.87 61.17 310.17 69.69 315.30"
/>
<path stroke="#c1c1ce" vector-effect="non-scaling-stroke" d="
  M 69.69 315.30
  Q 73.59 320.90 79.06 324.69
  Q 80.36 325.58 84.68 330.75
  Q 87.58 334.21 90.58 336.46
  Q 101.63 344.76 114.01 350.99
  Q 117.52 352.76 117.80 350.00
  C 118.06 347.27 114.31 342.19 112.49 340.29
  Q 110.56 338.27 105.83 335.61
  Q 95.17 329.60 85.85 321.71
  C 77.56 314.69 72.63 311.26 70.40 302.26"
/>
<path stroke="#9797b4" vector-effect="non-scaling-stroke" d="
  M 70.40 302.26
  C 68.40 296.57 69.64 283.17 78.75 284.50
  Q 93.80 286.69 106.21 290.25"
/>
<path stroke="#ccccd9" vector-effect="non-scaling-stroke" d="
  M 106.21 290.25
  Q 112.51 292.35 114.00 294.00
  Q 117.78 298.19 123.25 299.71"
/>
<path stroke="#9797b4" vector-effect="non-scaling-stroke" d="
  M 123.25 299.71
  L 125.50 300.79"
/>
<path stroke="#bbbbca" vector-effect="non-scaling-stroke" d="
  M 125.50 300.79
  C 127.35 301.97 128.57 300.95 128.49 298.97
  C 128.19 292.23 123.07 288.17 119.54 283.00"
/>
<path stroke="#9797b4" vector-effect="non-scaling-stroke" d="
  M 119.54 283.00
  Q 117.41 276.38 119.81 271.31
  Q 125.42 259.48 125.79 249.00"
/>
<path stroke="#d3d3de" vector-effect="non-scaling-stroke" d="
  M 125.79 249.00
  C 128.54 247.80 130.01 250.55 132.25 248.71"
/>
<path stroke="#9797b4" vector-effect="non-scaling-stroke" d="
  M 132.25 248.71
  C 137.41 250.29 143.36 258.76 148.54 264.75"
/>
<path stroke="#ccccd9" vector-effect="non-scaling-stroke" d="
  M 148.54 264.75
  C 152.69 271.25 160.77 280.98 161.96 288.56
  C 163.38 297.61 160.28 304.48 161.00 312.77
  A 1.06 1.06 83.7 0 0 162.19 313.73
  C 167.00 313.10 166.45 305.40 167.80 301.23
  C 168.88 297.90 171.52 294.55 172.42 290.61
  Q 172.82 288.84 172.07 287.20
  C 169.57 281.73 168.19 274.69 166.80 270.62
  Q 163.90 262.12 158.81 254.19
  C 155.66 249.27 153.61 243.03 149.84 238.90
  Q 145.51 234.15 139.79 231.00"
/>
<path stroke="#bbbbca" vector-effect="non-scaling-stroke" d="
  M 139.79 231.00
  Q 136.93 227.17 132.25 227.79"
/>
<path stroke="#9797b4" vector-effect="non-scaling-stroke" d="
  M 132.25 227.79
  C 122.15 226.53 112.46 242.31 109.63 250.04
  C 107.19 256.74 105.72 261.94 107.54 268.50"
/>
<path stroke="#53527f" vector-effect="non-scaling-stroke" d="
  M 132.25 227.79
  Q 136.81 229.25 138.57 233.53
  A 1.42 1.40 3.3 0 0 139.20 234.23
  C 141.29 235.37 142.51 237.59 143.90 238.85
  Q 148.17 242.72 151.31 247.61"
/>
<path stroke="#64638e" vector-effect="non-scaling-stroke" d="
  M 151.31 247.61
  L 154.66 252.87
  Q 154.98 253.36 155.08 253.74
  Q 155.32 254.61 156.25 256.25
  Q 159.58 262.15 163.00 268.00
  Q 164.23 270.10 164.69 272.56
  L 165.70 278.01
  Q 165.78 278.44 166.05 278.89
  L 167.05 280.54
  A 1.61 0.87 -69.3 0 1 167.18 281.49
  C 166.72 285.30 168.86 288.20 169.56 291.82
  A 1.73 1.72 71.5 0 1 168.62 293.71
  Q 166.06 294.94 165.72 295.37
  Q 164.44 296.96 164.20 294.94
  Q 163.05 285.27 158.72 278.52
  C 155.00 272.73 152.89 268.13 148.54 264.75"
/>
<path stroke="#6b6b93" vector-effect="non-scaling-stroke" d="
  M 132.25 248.71
  C 130.46 248.12 126.23 245.60 125.79 249.00"
/>
<path stroke="#53527f" vector-effect="non-scaling-stroke" d="
  M 119.54 283.00
  Q 118.43 285.76 120.22 287.82
  A 1.97 0.98 4.5 0 0 121.06 288.32
  C 123.03 288.98 123.65 292.48 124.93 294.01
  C 127.03 296.51 128.28 298.36 125.50 300.79"
/>
<path stroke="#64638e" vector-effect="non-scaling-stroke" d="
  M 123.25 299.71
  Q 120.01 297.21 116.57 294.99
  C 113.86 293.24 110.04 288.91 106.21 290.25"
/>
<path stroke="#595882" vector-effect="non-scaling-stroke" d="
  M 70.40 302.26
  C 69.65 309.33 73.01 311.88 78.42 317.81
  C 81.34 321.00 84.39 323.74 88.13 325.92
  C 91.31 327.77 92.75 330.26 96.56 332.19
  Q 102.38 335.13 110.00 340.79"
/>
<path stroke="#414073" vector-effect="non-scaling-stroke" d="
  M 110.00 340.79
  C 109.96 342.56 112.28 346.87 109.50 347.04"
/>
<path stroke="#595882" vector-effect="non-scaling-stroke" d="
  M 109.50 347.04
  Q 99.94 342.66 91.84 336.11
  Q 89.32 334.07 82.86 327.19
  Q 76.78 320.72 69.69 315.30"
/>
<path stroke="#47467b" vector-effect="non-scaling-stroke" d="
  M 78.25 269.96
  C 84.27 269.77 87.66 271.25 92.68 271.54
  A 1.16 0.62 61.9 0 1 93.38 272.01
  C 93.65 272.36 94.26 272.25 94.57 272.32
  Q 98.47 273.24 102.06 275.02
  A 1.83 1.65 54.0 0 0 103.01 275.22
  Q 105.68 274.98 108.06 273.74
  A 0.89 0.85 -13.5 0 0 108.53 273.01
  Q 108.64 270.63 107.54 268.50"
/>
<path stroke="#6b6a8d" vector-effect="non-scaling-stroke" d="
  M 109.50 347.04
  C 110.21 347.91 116.19 352.57 116.43 349.31
  A 1.04 0.84 25.0 0 0 116.04 348.52
  C 113.48 346.44 113.48 343.10 110.00 340.79"
/>
<path stroke="#7c7ba1" vector-effect="non-scaling-stroke" d="
  M 90.75 269.29
  Q 91.46 270.61 93.00 270.29"
/>
<path stroke="#8a89ab" vector-effect="non-scaling-stroke" d="
  M 93.75 270.54
  C 95.75 271.62 97.86 272.41 99.95 273.32
  Q 104.11 275.11 107.33 271.82"
/>
<path stroke="#8887a4" vector-effect="non-scaling-stroke" d="
  M 139.79 231.00
  Q 141.68 233.64 143.80 236.10
  C 147.26 240.11 150.92 241.08 151.31 247.61"
/>
<path stroke="#e8e8ee" vector-effect="non-scaling-stroke" d="
  M 207.04 237.78
  C 209.07 234.54 208.33 231.95 205.78 229.14
  A 1.12 0.72 -16.4 0 0 204.94 228.89
  L 199.87 229.39
  A 1.76 1.31 6.0 0 0 198.57 230.16
  C 195.39 236.47 200.85 247.61 207.04 237.78"
/>
<path stroke="#afafc7" vector-effect="non-scaling-stroke" d="
  M 245.82 243.78
  Q 246.43 253.52 243.50 266.00
  C 239.78 281.88 237.22 299.70 245.49 313.86
  Q 246.50 315.60 246.50 317.62
  Q 246.48 320.79 249.34 323.90
  Q 252.34 327.18 254.61 323.59"
/>
<path stroke="#a9a9bf" vector-effect="non-scaling-stroke" d="
  M 254.61 323.59
  C 252.70 314.92 252.92 306.29 251.79 297.69
  C 251.08 292.32 254.36 289.14 254.57 284.03
  Q 254.84 277.01 254.51 270.00
  C 254.34 266.44 252.02 264.04 252.21 260.50"
/>
<path stroke="#9797b4" vector-effect="non-scaling-stroke" d="
  M 252.21 260.50
  C 253.25 255.82 257.09 254.39 259.54 250.50"
/>
<path stroke="#d3d3de" vector-effect="non-scaling-stroke" d="
  M 259.54 250.50
  Q 262.55 245.67 263.81 244.81
  C 268.36 241.74 273.37 242.82 277.24 246.21
  C 281.72 250.13 282.83 258.51 282.51 264.04
  C 282.05 272.10 274.14 272.90 269.00 275.58
  A 0.83 0.83 76.6 0 0 268.55 276.32
  Q 268.57 279.43 270.75 281.71"
/>
<path stroke="#9797b4" vector-effect="non-scaling-stroke" d="
  M 270.75 281.71
  Q 275.13 287.75 282.46 289.50"
/>
<path stroke="#dad9e4" vector-effect="non-scaling-stroke" d="
  M 282.46 289.50
  C 286.41 290.80 291.43 288.19 294.62 291.60
  C 298.97 296.27 294.41 305.32 300.50 309.75
  C 305.83 313.62 302.16 318.14 301.51 323.34
  C 301.02 327.20 299.71 329.63 302.20 333.33
  Q 303.40 335.12 304.91 333.57
  Q 308.07 330.30 310.21 325.25"
/>
<path stroke="#9797b4" vector-effect="non-scaling-stroke" d="
  M 310.21 325.25
  Q 314.33 320.65 315.04 314.50"
/>
<path stroke="#a9a9bf" vector-effect="non-scaling-stroke" d="
  M 315.04 314.50
  C 318.31 302.18 310.19 291.22 304.84 280.79
  C 301.72 274.69 295.92 272.58 296.71 264.75"
/>
<path stroke="#9797b4" vector-effect="non-scaling-stroke" d="
  M 296.71 264.75
  Q 300.90 255.87 298.96 246.25"
/>
<path stroke="#d3d3de" vector-effect="non-scaling-stroke" d="
  M 298.96 246.25
  Q 296.35 236.11 287.50 231.81
  C 282.69 229.48 276.70 230.38 271.48 231.15
  C 266.23 231.92 262.30 230.40 256.88 233.43
  Q 252.69 235.77 246.77 237.96
  Q 244.81 238.69 245.30 241.15
  L 245.82 243.78"
/>
<path stroke="#6b6b93" vector-effect="non-scaling-stroke" d="
  M 298.96 246.25
  C 296.17 244.21 295.69 241.67 294.20 239.36
  Q 288.05 229.79 276.25 233.29"
/>
<path stroke="#8383a6" vector-effect="non-scaling-stroke" d="
  M 276.25 233.29
  C 273.65 232.38 267.28 232.60 264.50 233.00
  Q 261.61 233.42 260.81 233.81
  Q 255.53 236.40 249.94 238.19
  Q 245.75 239.52 245.82 243.78"
/>
<path stroke="#414073" vector-effect="non-scaling-stroke" d="
  M 296.71 264.75
  Q 294.10 266.00 294.31 269.19
  C 294.66 274.39 298.99 274.89 301.67 278.21
  C 303.85 280.92 305.00 285.56 307.27 289.07
  Q 309.07 291.85 310.05 294.29
  C 311.53 297.98 314.50 302.14 314.83 305.94
  Q 315.20 310.20 315.04 314.50"
/>
<path stroke="#727198" vector-effect="non-scaling-stroke" d="
  M 310.21 325.25
  L 305.94 328.21
  Q 304.54 329.19 304.50 327.59
  C 304.44 324.72 304.37 322.95 305.82 320.18
  Q 308.29 315.46 305.68 310.51
  A 1.32 1.16 -1.5 0 0 304.96 309.91
  Q 299.96 308.21 299.06 303.19
  Q 298.37 299.32 298.94 294.50
  A 1.33 1.25 -60.8 0 0 298.71 293.59
  Q 292.59 285.19 282.46 289.50"
/>
<path stroke="#6b6b93" vector-effect="non-scaling-stroke" d="
  M 270.75 281.71
  C 270.90 280.20 270.11 278.53 270.48 277.35
  C 271.06 275.51 273.31 275.83 274.57 275.35
  Q 280.66 273.06 281.56 272.06
  C 285.95 267.21 285.00 261.15 283.70 254.01
  C 282.53 247.57 278.02 242.23 271.30 241.80
  C 265.96 241.45 259.37 244.14 259.54 250.50"
/>
<path stroke="#414073" vector-effect="non-scaling-stroke" d="
  M 252.21 260.50
  Q 251.54 262.32 250.44 263.94
  C 249.14 265.84 250.90 269.49 251.17 270.90
  C 252.20 276.32 251.57 281.30 251.79 286.70
  Q 251.87 288.62 250.31 290.56
  C 246.77 294.99 250.19 301.77 250.71 307.00"
/>
<path stroke="#47467b" vector-effect="non-scaling-stroke" d="
  M 250.71 307.00
  L 249.41 311.49
  A 0.96 0.79 28.7 0 1 247.98 311.76
  L 244.99 309.47
  A 1.60 1.10 19.6 0 1 244.43 308.70
  Q 241.19 297.07 241.75 284.50
  C 241.95 280.06 243.09 275.70 243.76 272.10
  Q 245.79 261.12 247.00 257.75
  C 248.30 254.13 245.81 248.56 251.25 248.50
  Q 256.28 248.44 256.95 243.50
  A 1.44 1.23 35.5 0 0 256.72 242.59
  C 254.16 238.68 257.26 237.12 260.35 235.67
  C 265.08 233.45 270.65 234.97 276.25 233.29"
/>
<path stroke="#595886" vector-effect="non-scaling-stroke" d="
  M 250.71 307.00
  Q 251.81 312.57 251.53 318.25
  A 1.73 1.29 -66.5 0 0 251.75 319.19
  L 254.61 323.59"
/>
<path stroke="#9797b6" vector-effect="non-scaling-stroke" d="
  M 184.49 275.42
  C 189.15 285.42 193.21 295.36 188.46 306.50"
/>
<path stroke="#e8e8ee" vector-effect="non-scaling-stroke" d="
  M 188.46 306.50
  Q 187.79 306.94 187.03 306.75
  A 0.89 0.71 26.6 0 0 186.22 306.92
  Q 182.12 311.33 179.24 316.57
  C 176.93 320.75 174.75 324.14 172.83 328.06
  C 171.56 330.64 169.57 333.67 168.90 337.20
  A 1.34 1.24 -56.9 0 0 169.06 338.13
  Q 170.97 341.27 174.75 339.79"
/>
<path stroke="#9797b6" vector-effect="non-scaling-stroke" d="
  M 174.75 339.79
  Q 182.16 336.20 189.30 332.12
  C 192.96 330.03 196.51 330.27 200.47 330.62"
/>
<path stroke="#d3d3de" vector-effect="non-scaling-stroke" d="
  M 200.47 330.62
  Q 219.45 329.83 232.68 342.68
  C 238.17 348.01 241.49 339.55 240.06 335.27
  C 239.19 332.64 236.29 330.32 235.31 328.19
  Q 232.95 323.02 230.34 319.84
  Q 228.32 317.38 227.48 315.59
  Q 223.63 307.38 219.25 299.45
  A 1.89 1.46 -64.2 0 1 219.05 298.50
  Q 219.11 297.48 218.75 296.54"
/>
<path stroke="#bbbbca" vector-effect="non-scaling-stroke" d="
  M 218.75 296.54
  L 218.25 294.71"
/>
<path stroke="#9797b6" vector-effect="non-scaling-stroke" d="
  M 218.25 294.71
  C 217.30 284.71 221.10 277.80 223.04 268.50"
/>
<path stroke="#dad9e4" vector-effect="non-scaling-stroke" d="
  M 223.04 268.50
  L 237.27 239.65
  A 1.14 1.12 -60.0 0 0 236.89 238.20
  C 229.52 233.34 215.64 248.38 210.88 254.11
  Q 209.34 255.97 207.19 254.87
  Q 200.94 251.69 195.99 256.51
  A 2.31 2.29 -56.4 0 1 193.56 257.01
  C 190.82 255.96 188.33 255.45 186.12 253.43
  C 181.10 248.84 177.47 242.24 173.56 238.38
  C 170.81 235.66 160.17 225.67 157.87 234.01
  A 0.99 0.98 -57.4 0 0 158.06 234.89
  Q 159.84 236.99 163.94 239.56
  C 171.20 244.13 169.72 248.53 172.67 255.38
  Q 177.30 266.13 184.49 275.42"
/>
<path stroke="#72719a" vector-effect="non-scaling-stroke" d="
  M 223.04 268.50
  C 222.93 264.43 224.82 260.90 226.63 257.39
  C 228.94 252.91 229.60 248.62 232.69 244.33
  C 233.87 242.69 236.12 238.84 231.32 239.84
  C 226.33 240.87 225.34 244.22 222.52 247.08
  C 220.16 249.48 218.13 252.23 215.81 254.63
  C 214.63 255.84 214.30 257.53 213.19 258.39
  C 210.56 260.42 206.05 258.92 202.93 257.77
  A 1.51 1.51 24.9 0 0 201.10 258.44
  Q 197.31 265.02 190.50 260.71"
/>
<path stroke="#8a89ab" vector-effect="non-scaling-stroke" d="
  M 190.50 260.71
  Q 187.63 257.88 184.70 255.13
  C 183.16 253.68 182.52 251.50 180.71 249.89
  Q 178.77 248.17 177.96 246.97
  C 175.20 242.90 168.79 234.85 163.31 235.03
  Q 161.89 235.08 162.97 236.01
  Q 169.34 241.50 172.62 248.79"
/>
<path stroke="#72719a" vector-effect="non-scaling-stroke" d="
  M 172.62 248.79
  Q 173.22 252.81 174.56 254.94
  Q 180.63 264.56 184.49 275.42"
/>
<path stroke="#535281" vector-effect="non-scaling-stroke" d="
  M 218.25 294.71
  Q 217.67 296.52 218.54 298.25"
/>
<path stroke="#6b6b95" vector-effect="non-scaling-stroke" d="
  M 218.54 298.25
  Q 218.55 299.97 219.21 301.55
  C 221.14 306.15 227.47 322.66 231.84 324.29
  A 1.44 0.62 68.2 0 1 232.47 324.92
  L 233.33 326.33
  A 1.46 0.39 53.3 0 1 233.67 327.18
  Q 233.63 329.13 234.46 330.87
  A 1.06 0.83 -3.3 0 0 235.18 331.37
  Q 236.74 331.65 236.58 333.25
  A 1.03 0.90 -68.3 0 0 236.87 334.07
  Q 239.91 336.90 238.54 340.46
  Q 237.30 343.70 234.98 341.12
  C 225.99 331.13 213.63 327.79 200.47 330.62"
/>
<path stroke="#807fa5" vector-effect="non-scaling-stroke" d="
  M 174.75 339.79
  Q 173.13 340.03 172.28 338.93
  A 1.30 1.06 -63.1 0 1 172.08 338.00
  Q 173.48 329.80 180.04 322.12
  Q 180.60 321.46 181.17 320.39
  L 188.46 306.50"
/>
<path stroke="#47467d" vector-effect="non-scaling-stroke" d="
  M 190.50 260.71
  C 189.00 260.45 187.92 260.42 186.78 259.27
  Q 183.41 255.84 180.03 252.42
  C 179.25 251.63 172.85 242.66 172.62 248.79"
/>
<path stroke="#8f8fa9" vector-effect="non-scaling-stroke" d="
  M 218.75 296.54
  Q 218.91 297.45 218.54 298.25"
/>
<path stroke="#9493af" vector-effect="non-scaling-stroke" d="
  M 186.68 41.48
  Q 185.09 47.79 191.25 47.50
  Q 196.93 47.23 199.41 41.89"
/>
<path stroke="#b9b9cb" vector-effect="non-scaling-stroke" d="
  M 199.41 41.89
  Q 200.76 36.80 198.48 32.35
  C 196.75 28.96 193.64 27.54 190.58 30.58
  Q 186.07 35.06 186.68 41.48"
/>
<path stroke="#dad9e4" vector-effect="non-scaling-stroke" d="
  M 199.41 41.89
  C 195.36 43.66 188.99 50.17 186.68 41.48"
/>
<path stroke="#575785" vector-effect="non-scaling-stroke" d="
  M 190.40 50.08
  C 196.22 55.35 201.80 50.80 202.81 44.56
  C 203.25 41.86 200.79 43.11 199.97 43.94
  Q 196.28 47.70 190.51 49.57
  A 0.30 0.30 57.2 0 0 190.40 50.08"
/>
<path stroke="#65648a" vector-effect="non-scaling-stroke" d="
  M 261.33 105.09
  C 259.64 107.48 260.70 111.79 263.26 113.54
  A 1.09 0.97 51.0 0 0 264.16 113.69
  C 266.66 112.88 263.70 107.13 262.97 105.28
  Q 262.33 103.67 261.33 105.09"
/>
</g>
<path fill="#ffffff" d="
  M 0.00 0.00
  L 381.00 0.00
  L 381.00 380.00
  L 0.00 380.00
  L 0.00 0.00
  Z
  M 182.80 31.79
  Q 180.87 37.57 181.33 43.76
  C 181.82 50.44 187.81 52.06 192.94 53.73
  Q 195.68 54.63 198.26 53.34
  C 210.46 47.23 206.25 31.97 198.82 24.21
  C 193.08 18.79 184.95 26.56 182.80 31.79
  Z
  M 115.32 38.39
  Q 103.02 44.81 106.25 59.04
  C 108.12 67.95 110.81 74.34 118.94 78.31
  C 124.89 81.22 133.07 83.40 139.15 80.25
  C 141.82 78.85 149.41 71.65 142.25 70.21
  C 139.34 69.34 135.51 73.54 132.73 75.08
  A 3.71 3.70 -51.4 0 1 129.90 75.40
  Q 123.54 73.57 117.54 70.00
  C 111.35 64.32 111.76 55.75 114.00 48.75
  C 116.43 41.16 124.34 43.43 131.11 44.97
  Q 137.85 48.50 144.08 52.67
  Q 144.40 52.88 144.75 52.96
  A 1.80 0.74 1.6 0 1 145.61 53.34
  L 158.78 65.94
  C 161.68 70.62 165.91 73.27 168.64 77.69
  C 179.30 94.95 185.18 113.52 192.28 131.97
  Q 194.42 137.52 195.64 143.43
  C 198.32 156.44 202.88 171.77 200.19 184.99
  Q 198.46 193.47 196.92 202.47
  Q 196.60 204.33 198.47 204.54
  Q 200.13 204.73 201.50 202.53
  Q 207.41 193.11 207.95 182.07
  C 208.07 179.48 208.55 175.71 207.94 172.56
  C 206.97 167.60 206.28 163.39 205.98 158.84
  Q 205.79 155.75 204.31 152.69
  C 201.08 145.97 200.86 138.47 199.09 132.35
  C 196.64 123.90 192.17 115.26 189.33 107.96
  Q 183.60 93.24 176.44 81.06
  C 174.75 78.20 174.17 75.36 172.25 73.10
  C 165.66 65.33 155.69 52.03 145.94 46.92
  C 142.10 44.91 138.28 42.24 134.84 40.92
  Q 125.68 37.39 115.32 38.39
  Z
  M 211.66 112.85
  Q 211.03 119.95 211.81 122.94
  C 212.11 124.09 218.12 139.95 222.76 134.73
  C 225.56 131.58 219.22 128.16 218.75 125.50
  C 215.39 106.63 223.49 86.87 237.93 74.68
  C 248.43 65.81 255.73 58.23 270.96 60.50
  Q 280.05 63.06 286.90 69.86
  Q 287.78 71.51 288.95 72.94
  C 293.87 78.95 291.47 84.28 290.96 90.25
  L 288.75 95.46
  C 287.00 98.81 284.15 101.75 282.10 104.50
  C 279.33 108.22 270.48 117.54 266.54 110.50
  C 265.11 105.58 264.40 96.48 271.25 95.00
  Q 274.84 94.23 272.75 90.96
  C 270.69 85.42 265.34 89.62 263.50 92.96
  C 259.88 99.58 256.79 107.91 261.81 114.94
  C 266.53 121.54 270.86 119.75 277.16 117.24
  C 283.35 114.78 288.67 106.02 292.27 101.27
  C 295.80 96.63 296.39 92.00 297.11 86.12
  C 299.12 69.90 286.76 58.38 272.02 54.74
  C 261.11 50.96 247.93 57.22 239.84 64.21
  Q 237.90 65.88 234.22 68.78
  C 230.82 71.46 228.56 74.70 225.91 77.59
  C 220.72 83.24 217.32 91.71 214.23 98.70
  Q 211.25 105.44 211.66 112.85
  Z
  M 68.03 140.78
  Q 59.19 158.39 67.94 175.31
  Q 73.77 186.58 86.04 187.51
  C 91.99 187.96 99.46 187.20 104.44 183.94
  C 108.39 181.35 114.84 176.72 115.25 170.75
  Q 115.56 166.29 111.50 165.29
  C 105.42 166.34 106.77 171.77 103.77 175.66
  C 99.93 180.61 91.88 182.04 86.00 181.54
  C 77.92 180.02 72.41 174.93 70.24 166.95
  C 67.19 155.77 70.69 146.45 79.38 139.18
  Q 81.38 137.50 83.99 137.50
  Q 87.54 137.50 90.57 135.73
  C 95.49 132.86 107.52 136.59 112.27 138.33
  C 116.54 139.90 120.60 139.54 124.82 141.31
  Q 132.74 144.63 140.30 148.70
  C 144.79 151.11 148.47 154.76 152.55 158.00
  Q 155.22 160.12 157.13 162.81
  C 163.17 171.34 168.29 176.56 172.31 184.94
  C 176.98 194.65 183.61 205.49 181.50 215.25
  Q 180.74 218.76 182.04 221.75
  Q 184.42 226.02 186.71 221.50
  C 190.64 214.49 187.48 200.40 183.15 192.90
  C 179.65 186.83 176.78 180.01 172.74 174.33
  C 169.99 170.48 164.98 165.44 162.00 159.91
  Q 160.43 157.01 158.60 155.29
  Q 145.54 143.02 128.90 136.90
  C 117.99 132.89 106.76 129.76 95.29 129.45
  Q 78.32 127.89 68.03 140.78
  Z
  M 223.50 201.29
  C 226.58 195.40 229.46 189.54 233.60 184.45
  C 245.27 170.09 259.38 157.67 277.20 152.40
  Q 279.56 151.70 281.62 150.66
  C 288.93 146.99 299.06 147.28 307.00 148.21
  C 313.13 150.88 318.01 151.17 323.36 153.29
  C 328.77 155.44 332.21 159.65 334.75 164.69
  C 338.53 172.20 333.34 182.63 328.06 188.16
  C 322.86 194.41 310.54 204.74 301.94 197.31
  C 295.03 191.35 295.09 180.44 304.80 177.27
  Q 307.10 176.51 307.28 173.91
  Q 307.68 172.01 306.60 170.34
  A 1.54 1.34 -3.9 0 0 305.85 169.77
  C 298.77 167.28 293.13 173.67 292.54 180.25
  C 291.17 188.60 293.41 198.84 301.04 203.37
  C 307.96 207.48 319.11 204.94 324.94 199.69
  Q 333.81 191.70 340.04 180.74
  C 344.35 173.16 341.33 166.56 338.23 159.12
  C 336.05 153.86 332.71 151.59 327.81 149.19
  Q 316.35 143.57 304.52 142.55
  Q 293.90 141.61 283.29 142.40
  Q 280.00 142.64 276.85 144.03
  C 268.71 147.63 257.67 152.02 251.15 158.09
  Q 246.35 162.56 241.24 166.68
  C 234.19 172.36 228.64 180.30 223.26 187.52
  Q 215.08 198.51 214.99 212.23
  C 214.97 214.97 214.00 219.45 218.85 217.28
  A 1.09 0.94 87.8 0 0 219.41 216.58
  L 223.50 201.29
  Z
  M 107.54 268.50
  Q 106.93 269.78 107.33 271.82
  Q 103.64 272.43 101.56 271.69
  Q 97.32 270.17 93.75 270.54
  Q 93.26 270.62 93.00 270.29
  Q 92.29 269.05 90.75 269.29
  Q 84.35 267.40 78.25 269.96
  C 67.95 273.66 60.38 283.91 58.98 294.73
  C 57.68 304.87 61.17 310.17 69.69 315.30
  Q 73.59 320.90 79.06 324.69
  Q 80.36 325.58 84.68 330.75
  Q 87.58 334.21 90.58 336.46
  Q 101.63 344.76 114.01 350.99
  Q 117.52 352.76 117.80 350.00
  C 118.06 347.27 114.31 342.19 112.49 340.29
  Q 110.56 338.27 105.83 335.61
  Q 95.17 329.60 85.85 321.71
  C 77.56 314.69 72.63 311.26 70.40 302.26
  C 68.40 296.57 69.64 283.17 78.75 284.50
  Q 93.80 286.69 106.21 290.25
  Q 112.51 292.35 114.00 294.00
  Q 117.78 298.19 123.25 299.71
  L 125.50 300.79
  C 127.35 301.97 128.57 300.95 128.49 298.97
  C 128.19 292.23 123.07 288.17 119.54 283.00
  Q 117.41 276.38 119.81 271.31
  Q 125.42 259.48 125.79 249.00
  C 128.54 247.80 130.01 250.55 132.25 248.71
  C 137.41 250.29 143.36 258.76 148.54 264.75
  C 152.69 271.25 160.77 280.98 161.96 288.56
  C 163.38 297.61 160.28 304.48 161.00 312.77
  A 1.06 1.06 83.7 0 0 162.19 313.73
  C 167.00 313.10 166.45 305.40 167.80 301.23
  C 168.88 297.90 171.52 294.55 172.42 290.61
  Q 172.82 288.84 172.07 287.20
  C 169.57 281.73 168.19 274.69 166.80 270.62
  Q 163.90 262.12 158.81 254.19
  C 155.66 249.27 153.61 243.03 149.84 238.90
  Q 145.51 234.15 139.79 231.00
  Q 136.93 227.17 132.25 227.79
  C 122.15 226.53 112.46 242.31 109.63 250.04
  C 107.19 256.74 105.72 261.94 107.54 268.50
  Z
  M 207.04 237.78
  C 209.07 234.54 208.33 231.95 205.78 229.14
  A 1.12 0.72 -16.4 0 0 204.94 228.89
  L 199.87 229.39
  A 1.76 1.31 6.0 0 0 198.57 230.16
  C 195.39 236.47 200.85 247.61 207.04 237.78
  Z
  M 245.82 243.78
  Q 246.43 253.52 243.50 266.00
  C 239.78 281.88 237.22 299.70 245.49 313.86
  Q 246.50 315.60 246.50 317.62
  Q 246.48 320.79 249.34 323.90
  Q 252.34 327.18 254.61 323.59
  C 252.70 314.92 252.92 306.29 251.79 297.69
  C 251.08 292.32 254.36 289.14 254.57 284.03
  Q 254.84 277.01 254.51 270.00
  C 254.34 266.44 252.02 264.04 252.21 260.50
  C 253.25 255.82 257.09 254.39 259.54 250.50
  Q 262.55 245.67 263.81 244.81
  C 268.36 241.74 273.37 242.82 277.24 246.21
  C 281.72 250.13 282.83 258.51 282.51 264.04
  C 282.05 272.10 274.14 272.90 269.00 275.58
  A 0.83 0.83 76.6 0 0 268.55 276.32
  Q 268.57 279.43 270.75 281.71
  Q 275.13 287.75 282.46 289.50
  C 286.41 290.80 291.43 288.19 294.62 291.60
  C 298.97 296.27 294.41 305.32 300.50 309.75
  C 305.83 313.62 302.16 318.14 301.51 323.34
  C 301.02 327.20 299.71 329.63 302.20 333.33
  Q 303.40 335.12 304.91 333.57
  Q 308.07 330.30 310.21 325.25
  Q 314.33 320.65 315.04 314.50
  C 318.31 302.18 310.19 291.22 304.84 280.79
  C 301.72 274.69 295.92 272.58 296.71 264.75
  Q 300.90 255.87 298.96 246.25
  Q 296.35 236.11 287.50 231.81
  C 282.69 229.48 276.70 230.38 271.48 231.15
  C 266.23 231.92 262.30 230.40 256.88 233.43
  Q 252.69 235.77 246.77 237.96
  Q 244.81 238.69 245.30 241.15
  L 245.82 243.78
  Z
  M 184.49 275.42
  C 189.15 285.42 193.21 295.36 188.46 306.50
  Q 187.79 306.94 187.03 306.75
  A 0.89 0.71 26.6 0 0 186.22 306.92
  Q 182.12 311.33 179.24 316.57
  C 176.93 320.75 174.75 324.14 172.83 328.06
  C 171.56 330.64 169.57 333.67 168.90 337.20
  A 1.34 1.24 -56.9 0 0 169.06 338.13
  Q 170.97 341.27 174.75 339.79
  Q 182.16 336.20 189.30 332.12
  C 192.96 330.03 196.51 330.27 200.47 330.62
  Q 219.45 329.83 232.68 342.68
  C 238.17 348.01 241.49 339.55 240.06 335.27
  C 239.19 332.64 236.29 330.32 235.31 328.19
  Q 232.95 323.02 230.34 319.84
  Q 228.32 317.38 227.48 315.59
  Q 223.63 307.38 219.25 299.45
  A 1.89 1.46 -64.2 0 1 219.05 298.50
  Q 219.11 297.48 218.75 296.54
  L 218.25 294.71
  C 217.30 284.71 221.10 277.80 223.04 268.50
  L 237.27 239.65
  A 1.14 1.12 -60.0 0 0 236.89 238.20
  C 229.52 233.34 215.64 248.38 210.88 254.11
  Q 209.34 255.97 207.19 254.87
  Q 200.94 251.69 195.99 256.51
  A 2.31 2.29 -56.4 0 1 193.56 257.01
  C 190.82 255.96 188.33 255.45 186.12 253.43
  C 181.10 248.84 177.47 242.24 173.56 238.38
  C 170.81 235.66 160.17 225.67 157.87 234.01
  A 0.99 0.98 -57.4 0 0 158.06 234.89
  Q 159.84 236.99 163.94 239.56
  C 171.20 244.13 169.72 248.53 172.67 255.38
  Q 177.30 266.13 184.49 275.42
  Z"
/>
<path fill="#b4b3c8" d="
  M 198.82 24.21
  Q 194.62 23.62 192.19 24.69
  Q 187.58 26.71 182.80 31.79
  C 184.95 26.56 193.08 18.79 198.82 24.21
  Z"
/>
<path fill="#737396" d="
  M 198.82 24.21
  C 206.25 31.97 210.46 47.23 198.26 53.34
  Q 195.68 54.63 192.94 53.73
  C 187.81 52.06 181.82 50.44 181.33 43.76
  Q 180.87 37.57 182.80 31.79
  Q 187.58 26.71 192.19 24.69
  Q 194.62 23.62 198.82 24.21
  Z
  M 186.68 41.48
  Q 185.09 47.79 191.25 47.50
  Q 196.93 47.23 199.41 41.89
  Q 200.76 36.80 198.48 32.35
  C 196.75 28.96 193.64 27.54 190.58 30.58
  Q 186.07 35.06 186.68 41.48
  Z
  M 190.40 50.08
  C 196.22 55.35 201.80 50.80 202.81 44.56
  C 203.25 41.86 200.79 43.11 199.97 43.94
  Q 196.28 47.70 190.51 49.57
  A 0.30 0.30 57.2 0 0 190.40 50.08
  Z"
/>
<path fill="#ffffff" d="
  M 199.41 41.89
  C 195.36 43.66 188.99 50.17 186.68 41.48
  Q 186.07 35.06 190.58 30.58
  C 193.64 27.54 196.75 28.96 198.48 32.35
  Q 200.76 36.80 199.41 41.89
  Z"
/>
<path fill="#737396" d="
  M 158.78 65.94
  C 156.67 61.92 153.02 59.03 150.36 56.41
  Q 142.21 48.38 131.11 44.97
  C 124.34 43.43 116.43 41.16 114.00 48.75
  C 111.76 55.75 111.35 64.32 117.54 70.00
  Q 121.25 74.45 126.00 75.50
  Q 128.26 76.00 129.39 76.92
  A 1.72 1.21 58.5 0 0 130.25 77.29
  Q 136.82 77.64 139.56 71.56
  Q 140.29 69.96 142.25 70.21
  C 149.41 71.65 141.82 78.85 139.15 80.25
  C 133.07 83.40 124.89 81.22 118.94 78.31
  C 110.81 74.34 108.12 67.95 106.25 59.04
  C 106.83 54.68 107.01 49.24 108.84 45.63
  Q 111.05 41.29 115.32 38.39
  Q 125.68 37.39 134.84 40.92
  C 138.28 42.24 142.10 44.91 145.94 46.92
  C 155.69 52.03 165.66 65.33 172.25 73.10
  C 174.17 75.36 174.75 78.20 176.44 81.06
  Q 183.60 93.24 189.33 107.96
  C 192.17 115.26 196.64 123.90 199.09 132.35
  C 200.86 138.47 201.08 145.97 204.31 152.69
  Q 205.79 155.75 205.98 158.84
  C 206.28 163.39 206.97 167.60 207.94 172.56
  C 208.55 175.71 208.07 179.48 207.95 182.07
  Q 207.41 193.11 201.50 202.53
  Q 200.13 204.73 198.47 204.54
  Q 196.60 204.33 196.92 202.47
  Q 198.46 193.47 200.19 184.99
  C 202.88 171.77 198.32 156.44 195.64 143.43
  Q 194.42 137.52 192.28 131.97
  C 185.18 113.52 179.30 94.95 168.64 77.69
  C 165.91 73.27 161.68 70.62 158.78 65.94
  Z"
/>
<path fill="#a7a7bd" d="
  M 115.32 38.39
  Q 111.05 41.29 108.84 45.63
  C 107.01 49.24 106.83 54.68 106.25 59.04
  Q 103.02 44.81 115.32 38.39
  Z"
/>
<path fill="#b4b3c8" d="
  M 186.68 41.48
  C 188.99 50.17 195.36 43.66 199.41 41.89
  Q 196.93 47.23 191.25 47.50
  Q 185.09 47.79 186.68 41.48
  Z"
/>
<path fill="#3a3a74" d="
  M 190.40 50.08
  A 0.30 0.30 57.2 0 1 190.51 49.57
  Q 196.28 47.70 199.97 43.94
  C 200.79 43.11 203.25 41.86 202.81 44.56
  C 201.80 50.80 196.22 55.35 190.40 50.08
  Z"
/>
<path fill="#a7a7bd" d="
  M 158.78 65.94
  L 145.61 53.34
  A 1.80 0.74 1.6 0 0 144.75 52.96
  Q 144.40 52.88 144.08 52.67
  Q 137.85 48.50 131.11 44.97
  Q 142.21 48.38 150.36 56.41
  C 153.02 59.03 156.67 61.92 158.78 65.94
  Z"
/>
<path fill="#a7a7bd" d="
  M 272.02 54.74
  Q 269.12 55.42 266.17 55.42
  C 253.01 55.41 243.92 62.75 234.32 70.92
  Q 229.37 75.13 225.19 80.19
  Q 223.10 82.71 216.06 98.06
  Q 213.18 104.36 211.66 112.85
  Q 211.25 105.44 214.23 98.70
  C 217.32 91.71 220.72 83.24 225.91 77.59
  C 228.56 74.70 230.82 71.46 234.22 68.78
  Q 237.90 65.88 239.84 64.21
  C 247.93 57.22 261.11 50.96 272.02 54.74
  Z"
/>
<path fill="#767695" d="
  M 272.02 54.74
  C 286.76 58.38 299.12 69.90 297.11 86.12
  C 296.39 92.00 295.80 96.63 292.27 101.27
  C 288.67 106.02 283.35 114.78 277.16 117.24
  C 270.86 119.75 266.53 121.54 261.81 114.94
  C 256.79 107.91 259.88 99.58 263.50 92.96
  C 266.43 91.37 269.17 88.58 272.75 90.96
  Q 274.84 94.23 271.25 95.00
  C 264.40 96.48 265.11 105.58 266.54 110.50
  Q 266.04 114.73 270.64 114.75
  Q 272.67 114.76 274.44 113.76
  C 278.77 111.31 282.57 106.21 285.69 102.73
  C 287.75 100.42 287.82 97.65 289.75 95.04
  Q 291.23 92.88 290.96 90.25
  C 291.47 84.28 293.87 78.95 288.95 72.94
  Q 287.78 71.51 286.90 69.86
  Q 282.41 61.07 272.25 60.25
  Q 271.43 59.62 270.96 60.50
  C 255.73 58.23 248.43 65.81 237.93 74.68
  C 223.49 86.87 215.39 106.63 218.75 125.50
  C 219.22 128.16 225.56 131.58 222.76 134.73
  C 218.12 139.95 212.11 124.09 211.81 122.94
  Q 211.03 119.95 211.66 112.85
  Q 213.18 104.36 216.06 98.06
  Q 223.10 82.71 225.19 80.19
  Q 229.37 75.13 234.32 70.92
  C 243.92 62.75 253.01 55.41 266.17 55.42
  Q 269.12 55.42 272.02 54.74
  Z
  M 261.33 105.09
  C 259.64 107.48 260.70 111.79 263.26 113.54
  A 1.09 0.97 51.0 0 0 264.16 113.69
  C 266.66 112.88 263.70 107.13 262.97 105.28
  Q 262.33 103.67 261.33 105.09
  Z"
/>
<path fill="#83829c" d="
  M 286.90 69.86
  Q 280.05 63.06 270.96 60.50
  Q 271.43 59.62 272.25 60.25
  Q 282.41 61.07 286.90 69.86
  Z"
/>
<path fill="#9998b3" d="
  M 117.54 70.00
  Q 123.54 73.57 129.90 75.40
  A 3.71 3.70 -51.4 0 0 132.73 75.08
  C 135.51 73.54 139.34 69.34 142.25 70.21
  Q 140.29 69.96 139.56 71.56
  Q 136.82 77.64 130.25 77.29
  A 1.72 1.21 58.5 0 1 129.39 76.92
  Q 128.26 76.00 126.00 75.50
  Q 121.25 74.45 117.54 70.00
  Z"
/>
<path fill="#b4b3c8" d="
  M 272.75 90.96
  C 269.17 88.58 266.43 91.37 263.50 92.96
  C 265.34 89.62 270.69 85.42 272.75 90.96
  Z"
/>
<path fill="#b4b3c8" d="
  M 290.96 90.25
  Q 291.23 92.88 289.75 95.04
  Q 289.30 95.42 288.75 95.46
  L 290.96 90.25
  Z"
/>
<path fill="#b4b3c8" d="
  M 289.75 95.04
  C 287.82 97.65 287.75 100.42 285.69 102.73
  C 282.57 106.21 278.77 111.31 274.44 113.76
  Q 272.67 114.76 270.64 114.75
  Q 266.04 114.73 266.54 110.50
  C 270.48 117.54 279.33 108.22 282.10 104.50
  C 284.15 101.75 287.00 98.81 288.75 95.46
  Q 289.30 95.42 289.75 95.04
  Z"
/>
<path fill="#53527e" d="
  M 263.26 113.54
  C 260.70 111.79 259.64 107.48 261.33 105.09
  Q 262.33 103.67 262.97 105.28
  C 263.70 107.13 266.66 112.88 264.16 113.69
  A 1.09 0.97 51.0 0 1 263.26 113.54
  Z"
/>
<path fill="#b4b3c8" d="
  M 95.29 129.45
  Q 92.91 129.78 90.56 130.11
  C 87.48 130.53 84.03 132.10 80.50 133.25
  Q 75.43 134.91 68.03 140.78
  Q 78.32 127.89 95.29 129.45
  Z"
/>
<path fill="#737396" d="
  M 95.29 129.45
  C 106.76 129.76 117.99 132.89 128.90 136.90
  Q 145.54 143.02 158.60 155.29
  Q 160.43 157.01 162.00 159.91
  C 164.98 165.44 169.99 170.48 172.74 174.33
  C 176.78 180.01 179.65 186.83 183.15 192.90
  C 187.48 200.40 190.64 214.49 186.71 221.50
  L 182.04 221.75
  Q 180.74 218.76 181.50 215.25
  C 183.61 205.49 176.98 194.65 172.31 184.94
  C 168.29 176.56 163.17 171.34 157.13 162.81
  Q 155.22 160.12 152.55 158.00
  C 148.47 154.76 144.79 151.11 140.30 148.70
  Q 132.74 144.63 124.82 141.31
  C 120.60 139.54 116.54 139.90 112.27 138.33
  C 107.52 136.59 95.49 132.86 90.57 135.73
  Q 87.54 137.50 83.99 137.50
  Q 81.38 137.50 79.38 139.18
  C 70.69 146.45 67.19 155.77 70.24 166.95
  C 72.41 174.93 77.92 180.02 86.00 181.54
  C 93.48 184.60 106.84 180.51 109.39 172.11
  Q 110.43 168.70 111.50 165.29
  Q 115.56 166.29 115.25 170.75
  C 114.84 176.72 108.39 181.35 104.44 183.94
  C 99.46 187.20 91.99 187.96 86.04 187.51
  Q 73.77 186.58 67.94 175.31
  Q 59.19 158.39 68.03 140.78
  Q 75.43 134.91 80.50 133.25
  C 84.03 132.10 87.48 130.53 90.56 130.11
  Q 92.91 129.78 95.29 129.45
  Z"
/>
<path fill="#9998b3" d="
  M 304.52 142.55
  L 281.32 144.52
  A 1.52 1.40 -66.8 0 0 280.45 144.91
  C 277.06 148.10 273.59 146.96 270.17 148.95
  C 266.52 151.07 263.14 152.82 258.85 154.55
  C 253.86 156.56 251.04 160.56 247.52 163.28
  C 242.54 167.13 237.10 170.17 233.86 175.84
  Q 232.86 177.58 230.06 180.56
  Q 223.05 188.03 219.23 198.84
  A 1.44 0.77 -81.8 0 1 218.66 199.61
  L 217.54 200.17
  A 0.93 0.57 -19.0 0 0 217.02 200.80
  Q 216.92 203.39 219.90 205.49
  A 1.11 1.10 22.8 0 0 221.63 204.79
  Q 221.94 203.10 223.50 201.29
  L 219.41 216.58
  A 1.09 0.94 87.8 0 1 218.85 217.28
  C 214.00 219.45 214.97 214.97 214.99 212.23
  Q 215.08 198.51 223.26 187.52
  C 228.64 180.30 234.19 172.36 241.24 166.68
  Q 246.35 162.56 251.15 158.09
  C 257.67 152.02 268.71 147.63 276.85 144.03
  Q 280.00 142.64 283.29 142.40
  Q 293.90 141.61 304.52 142.55
  Z"
/>
<path fill="#767695" d="
  M 304.52 142.55
  Q 316.35 143.57 327.81 149.19
  C 332.71 151.59 336.05 153.86 338.23 159.12
  C 341.33 166.56 344.35 173.16 340.04 180.74
  Q 333.81 191.70 324.94 199.69
  C 319.11 204.94 307.96 207.48 301.04 203.37
  C 293.41 198.84 291.17 188.60 292.54 180.25
  C 294.42 177.07 298.42 171.28 302.32 170.86
  Q 305.63 170.50 307.28 173.91
  Q 307.10 176.51 304.80 177.27
  C 295.09 180.44 295.03 191.35 301.94 197.31
  C 310.54 204.74 322.86 194.41 328.06 188.16
  Q 341.29 178.18 335.31 162.94
  C 332.85 156.65 328.21 153.57 322.07 151.45
  C 318.94 150.36 315.64 150.24 312.29 149.04
  C 310.31 148.33 309.31 147.36 307.00 148.21
  C 299.06 147.28 288.93 146.99 281.62 150.66
  Q 279.56 151.70 277.20 152.40
  C 259.38 157.67 245.27 170.09 233.60 184.45
  C 229.46 189.54 226.58 195.40 223.50 201.29
  Q 221.94 203.10 221.63 204.79
  A 1.11 1.10 22.8 0 1 219.90 205.49
  Q 216.92 203.39 217.02 200.80
  A 0.93 0.57 -19.0 0 1 217.54 200.17
  L 218.66 199.61
  A 1.44 0.77 -81.8 0 0 219.23 198.84
  Q 223.05 188.03 230.06 180.56
  Q 232.86 177.58 233.86 175.84
  C 237.10 170.17 242.54 167.13 247.52 163.28
  C 251.04 160.56 253.86 156.56 258.85 154.55
  C 263.14 152.82 266.52 151.07 270.17 148.95
  C 273.59 146.96 277.06 148.10 280.45 144.91
  A 1.52 1.40 -66.8 0 1 281.32 144.52
  L 304.52 142.55
  Z"
/>
<path fill="#a7a7bd" d="
  M 328.06 188.16
  C 333.34 182.63 338.53 172.20 334.75 164.69
  C 332.21 159.65 328.77 155.44 323.36 153.29
  C 318.01 151.17 313.13 150.88 307.00 148.21
  C 309.31 147.36 310.31 148.33 312.29 149.04
  C 315.64 150.24 318.94 150.36 322.07 151.45
  C 328.21 153.57 332.85 156.65 335.31 162.94
  Q 341.29 178.18 328.06 188.16
  Z"
/>
<path fill="#b4b3c8" d="
  M 111.50 165.29
  Q 110.43 168.70 109.39 172.11
  C 106.84 180.51 93.48 184.60 86.00 181.54
  C 91.88 182.04 99.93 180.61 103.77 175.66
  C 106.77 171.77 105.42 166.34 111.50 165.29
  Z"
/>
<path fill="#a7a7bd" d="
  M 307.28 173.91
  Q 305.63 170.50 302.32 170.86
  C 298.42 171.28 294.42 177.07 292.54 180.25
  C 293.13 173.67 298.77 167.28 305.85 169.77
  A 1.54 1.34 -3.9 0 1 306.60 170.34
  Q 307.68 172.01 307.28 173.91
  Z"
/>
<path fill="#b4b3c8" d="
  M 186.71 221.50
  Q 184.42 226.02 182.04 221.75
  L 186.71 221.50
  Z"
/>
<path fill="#2f2e68" d="
  M 132.25 227.79
  Q 136.81 229.25 138.57 233.53
  A 1.42 1.40 3.3 0 0 139.20 234.23
  C 141.29 235.37 142.51 237.59 143.90 238.85
  Q 148.17 242.72 151.31 247.61
  L 154.66 252.87
  Q 154.98 253.36 155.08 253.74
  Q 155.32 254.61 156.25 256.25
  Q 159.58 262.15 163.00 268.00
  Q 164.23 270.10 164.69 272.56
  L 165.70 278.01
  Q 165.78 278.44 166.05 278.89
  L 167.05 280.54
  A 1.61 0.87 -69.3 0 1 167.18 281.49
  C 166.72 285.30 168.86 288.20 169.56 291.82
  A 1.73 1.72 71.5 0 1 168.62 293.71
  Q 166.06 294.94 165.72 295.37
  Q 164.44 296.96 164.20 294.94
  Q 163.05 285.27 158.72 278.52
  C 155.00 272.73 152.89 268.13 148.54 264.75
  C 143.36 258.76 137.41 250.29 132.25 248.71
  C 130.46 248.12 126.23 245.60 125.79 249.00
  Q 125.42 259.48 119.81 271.31
  Q 117.41 276.38 119.54 283.00
  Q 118.43 285.76 120.22 287.82
  A 1.97 0.98 4.5 0 0 121.06 288.32
  C 123.03 288.98 123.65 292.48 124.93 294.01
  C 127.03 296.51 128.28 298.36 125.50 300.79
  L 123.25 299.71
  Q 120.01 297.21 116.57 294.99
  C 113.86 293.24 110.04 288.91 106.21 290.25
  Q 93.80 286.69 78.75 284.50
  C 69.64 283.17 68.40 296.57 70.40 302.26
  C 69.65 309.33 73.01 311.88 78.42 317.81
  C 81.34 321.00 84.39 323.74 88.13 325.92
  C 91.31 327.77 92.75 330.26 96.56 332.19
  Q 102.38 335.13 110.00 340.79
  C 109.96 342.56 112.28 346.87 109.50 347.04
  Q 99.94 342.66 91.84 336.11
  Q 89.32 334.07 82.86 327.19
  Q 76.78 320.72 69.69 315.30
  C 61.17 310.17 57.68 304.87 58.98 294.73
  C 60.38 283.91 67.95 273.66 78.25 269.96
  C 84.27 269.77 87.66 271.25 92.68 271.54
  A 1.16 0.62 61.9 0 1 93.38 272.01
  C 93.65 272.36 94.26 272.25 94.57 272.32
  Q 98.47 273.24 102.06 275.02
  A 1.83 1.65 54.0 0 0 103.01 275.22
  Q 105.68 274.98 108.06 273.74
  A 0.89 0.85 -13.5 0 0 108.53 273.01
  Q 108.64 270.63 107.54 268.50
  C 105.72 261.94 107.19 256.74 109.63 250.04
  C 112.46 242.31 122.15 226.53 132.25 227.79
  Z"
/>
<path fill="#767695" d="
  M 139.79 231.00
  Q 141.68 233.64 143.80 236.10
  C 147.26 240.11 150.92 241.08 151.31 247.61
  Q 148.17 242.72 143.90 238.85
  C 142.51 237.59 141.29 235.37 139.20 234.23
  A 1.42 1.40 3.3 0 1 138.57 233.53
  Q 136.81 229.25 132.25 227.79
  Q 136.93 227.17 139.79 231.00
  Z"
/>
<path fill="#d1d0dd" d="
  M 207.04 237.78
  C 200.85 247.61 195.39 236.47 198.57 230.16
  A 1.76 1.31 6.0 0 1 199.87 229.39
  L 204.94 228.89
  A 1.12 0.72 -16.4 0 1 205.78 229.14
  C 208.33 231.95 209.07 234.54 207.04 237.78
  Z"
/>
<path fill="#a7a7bd" d="
  M 298.96 246.25
  C 296.17 244.21 295.69 241.67 294.20 239.36
  Q 288.05 229.79 276.25 233.29
  C 273.65 232.38 267.28 232.60 264.50 233.00
  Q 261.61 233.42 260.81 233.81
  Q 255.53 236.40 249.94 238.19
  Q 245.75 239.52 245.82 243.78
  L 245.30 241.15
  Q 244.81 238.69 246.77 237.96
  Q 252.69 235.77 256.88 233.43
  C 262.30 230.40 266.23 231.92 271.48 231.15
  C 276.70 230.38 282.69 229.48 287.50 231.81
  Q 296.35 236.11 298.96 246.25
  Z"
/>
<path fill="#b4b3c8" d="
  M 223.04 268.50
  C 222.93 264.43 224.82 260.90 226.63 257.39
  C 228.94 252.91 229.60 248.62 232.69 244.33
  C 233.87 242.69 236.12 238.84 231.32 239.84
  C 226.33 240.87 225.34 244.22 222.52 247.08
  C 220.16 249.48 218.13 252.23 215.81 254.63
  C 214.63 255.84 214.30 257.53 213.19 258.39
  C 210.56 260.42 206.05 258.92 202.93 257.77
  A 1.51 1.51 24.9 0 0 201.10 258.44
  Q 197.31 265.02 190.50 260.71
  Q 187.63 257.88 184.70 255.13
  C 183.16 253.68 182.52 251.50 180.71 249.89
  Q 178.77 248.17 177.96 246.97
  C 175.20 242.90 168.79 234.85 163.31 235.03
  Q 161.89 235.08 162.97 236.01
  Q 169.34 241.50 172.62 248.79
  Q 173.22 252.81 174.56 254.94
  Q 180.63 264.56 184.49 275.42
  Q 177.30 266.13 172.67 255.38
  C 169.72 248.53 171.20 244.13 163.94 239.56
  Q 159.84 236.99 158.06 234.89
  A 0.99 0.98 -57.4 0 1 157.87 234.01
  C 160.17 225.67 170.81 235.66 173.56 238.38
  C 177.47 242.24 181.10 248.84 186.12 253.43
  C 188.33 255.45 190.82 255.96 193.56 257.01
  A 2.31 2.29 -56.4 0 0 195.99 256.51
  Q 200.94 251.69 207.19 254.87
  Q 209.34 255.97 210.88 254.11
  C 215.64 248.38 229.52 233.34 236.89 238.20
  A 1.14 1.12 -60.0 0 1 237.27 239.65
  L 223.04 268.50
  Z"
/>
<path fill="#9998b3" d="
  M 139.79 231.00
  Q 145.51 234.15 149.84 238.90
  C 153.61 243.03 155.66 249.27 158.81 254.19
  Q 163.90 262.12 166.80 270.62
  C 168.19 274.69 169.57 281.73 172.07 287.20
  Q 172.82 288.84 172.42 290.61
  C 171.52 294.55 168.88 297.90 167.80 301.23
  C 166.45 305.40 167.00 313.10 162.19 313.73
  A 1.06 1.06 83.7 0 1 161.00 312.77
  C 160.28 304.48 163.38 297.61 161.96 288.56
  C 160.77 280.98 152.69 271.25 148.54 264.75
  C 152.89 268.13 155.00 272.73 158.72 278.52
  Q 163.05 285.27 164.20 294.94
  Q 164.44 296.96 165.72 295.37
  Q 166.06 294.94 168.62 293.71
  A 1.73 1.72 71.5 0 0 169.56 291.82
  C 168.86 288.20 166.72 285.30 167.18 281.49
  A 1.61 0.87 -69.3 0 0 167.05 280.54
  L 166.05 278.89
  Q 165.78 278.44 165.70 278.01
  L 164.69 272.56
  Q 164.23 270.10 163.00 268.00
  Q 159.58 262.15 156.25 256.25
  Q 155.32 254.61 155.08 253.74
  Q 154.98 253.36 154.66 252.87
  L 151.31 247.61
  C 150.92 241.08 147.26 240.11 143.80 236.10
  Q 141.68 233.64 139.79 231.00
  Z"
/>
<path fill="#2f2e68" d="
  M 298.96 246.25
  Q 300.90 255.87 296.71 264.75
  Q 294.10 266.00 294.31 269.19
  C 294.66 274.39 298.99 274.89 301.67 278.21
  C 303.85 280.92 305.00 285.56 307.27 289.07
  Q 309.07 291.85 310.05 294.29
  C 311.53 297.98 314.50 302.14 314.83 305.94
  Q 315.20 310.20 315.04 314.50
  Q 314.33 320.65 310.21 325.25
  L 305.94 328.21
  Q 304.54 329.19 304.50 327.59
  C 304.44 324.72 304.37 322.95 305.82 320.18
  Q 308.29 315.46 305.68 310.51
  A 1.32 1.16 -1.5 0 0 304.96 309.91
  Q 299.96 308.21 299.06 303.19
  Q 298.37 299.32 298.94 294.50
  A 1.33 1.25 -60.8 0 0 298.71 293.59
  Q 292.59 285.19 282.46 289.50
  Q 275.13 287.75 270.75 281.71
  C 270.90 280.20 270.11 278.53 270.48 277.35
  C 271.06 275.51 273.31 275.83 274.57 275.35
  Q 280.66 273.06 281.56 272.06
  C 285.95 267.21 285.00 261.15 283.70 254.01
  C 282.53 247.57 278.02 242.23 271.30 241.80
  C 265.96 241.45 259.37 244.14 259.54 250.50
  C 257.09 254.39 253.25 255.82 252.21 260.50
  Q 251.54 262.32 250.44 263.94
  C 249.14 265.84 250.90 269.49 251.17 270.90
  C 252.20 276.32 251.57 281.30 251.79 286.70
  Q 251.87 288.62 250.31 290.56
  C 246.77 294.99 250.19 301.77 250.71 307.00
  L 249.41 311.49
  A 0.96 0.79 28.7 0 1 247.98 311.76
  L 244.99 309.47
  A 1.60 1.10 19.6 0 1 244.43 308.70
  Q 241.19 297.07 241.75 284.50
  C 241.95 280.06 243.09 275.70 243.76 272.10
  Q 245.79 261.12 247.00 257.75
  C 248.30 254.13 245.81 248.56 251.25 248.50
  Q 256.28 248.44 256.95 243.50
  A 1.44 1.23 35.5 0 0 256.72 242.59
  C 254.16 238.68 257.26 237.12 260.35 235.67
  C 265.08 233.45 270.65 234.97 276.25 233.29
  Q 288.05 229.79 294.20 239.36
  C 295.69 241.67 296.17 244.21 298.96 246.25
  Z"
/>
<path fill="#5f5e8e" d="
  M 276.25 233.29
  C 270.65 234.97 265.08 233.45 260.35 235.67
  C 257.26 237.12 254.16 238.68 256.72 242.59
  A 1.44 1.23 35.5 0 1 256.95 243.50
  Q 256.28 248.44 251.25 248.50
  C 245.81 248.56 248.30 254.13 247.00 257.75
  Q 245.79 261.12 243.76 272.10
  C 243.09 275.70 241.95 280.06 241.75 284.50
  Q 241.19 297.07 244.43 308.70
  A 1.60 1.10 19.6 0 0 244.99 309.47
  L 247.98 311.76
  A 0.96 0.79 28.7 0 0 249.41 311.49
  L 250.71 307.00
  Q 251.81 312.57 251.53 318.25
  A 1.73 1.29 -66.5 0 0 251.75 319.19
  L 254.61 323.59
  Q 252.34 327.18 249.34 323.90
  Q 246.48 320.79 246.50 317.62
  Q 246.50 315.60 245.49 313.86
  C 237.22 299.70 239.78 281.88 243.50 266.00
  Q 246.43 253.52 245.82 243.78
  Q 245.75 239.52 249.94 238.19
  Q 255.53 236.40 260.81 233.81
  Q 261.61 233.42 264.50 233.00
  C 267.28 232.60 273.65 232.38 276.25 233.29
  Z"
/>
<path fill="#5f5e8e" d="
  M 190.50 260.71
  C 189.00 260.45 187.92 260.42 186.78 259.27
  Q 183.41 255.84 180.03 252.42
  C 179.25 251.63 172.85 242.66 172.62 248.79
  Q 169.34 241.50 162.97 236.01
  Q 161.89 235.08 163.31 235.03
  C 168.79 234.85 175.20 242.90 177.96 246.97
  Q 178.77 248.17 180.71 249.89
  C 182.52 251.50 183.16 253.68 184.70 255.13
  Q 187.63 257.88 190.50 260.71
  Z"
/>
<path fill="#2f2e6c" d="
  M 223.04 268.50
  C 221.10 277.80 217.30 284.71 218.25 294.71
  Q 217.67 296.52 218.54 298.25
  Q 218.55 299.97 219.21 301.55
  C 221.14 306.15 227.47 322.66 231.84 324.29
  A 1.44 0.62 68.2 0 1 232.47 324.92
  L 233.33 326.33
  A 1.46 0.39 53.3 0 1 233.67 327.18
  Q 233.63 329.13 234.46 330.87
  A 1.06 0.83 -3.3 0 0 235.18 331.37
  Q 236.74 331.65 236.58 333.25
  A 1.03 0.90 -68.3 0 0 236.87 334.07
  Q 239.91 336.90 238.54 340.46
  Q 237.30 343.70 234.98 341.12
  C 225.99 331.13 213.63 327.79 200.47 330.62
  C 196.51 330.27 192.96 330.03 189.30 332.12
  Q 182.16 336.20 174.75 339.79
  Q 173.13 340.03 172.28 338.93
  A 1.30 1.06 -63.1 0 1 172.08 338.00
  Q 173.48 329.80 180.04 322.12
  Q 180.60 321.46 181.17 320.39
  L 188.46 306.50
  C 193.21 295.36 189.15 285.42 184.49 275.42
  Q 180.63 264.56 174.56 254.94
  Q 173.22 252.81 172.62 248.79
  C 172.85 242.66 179.25 251.63 180.03 252.42
  Q 183.41 255.84 186.78 259.27
  C 187.92 260.42 189.00 260.45 190.50 260.71
  Q 197.31 265.02 201.10 258.44
  A 1.51 1.51 24.9 0 1 202.93 257.77
  C 206.05 258.92 210.56 260.42 213.19 258.39
  C 214.30 257.53 214.63 255.84 215.81 254.63
  C 218.13 252.23 220.16 249.48 222.52 247.08
  C 225.34 244.22 226.33 240.87 231.32 239.84
  C 236.12 238.84 233.87 242.69 232.69 244.33
  C 229.60 248.62 228.94 252.91 226.63 257.39
  C 224.82 260.90 222.93 264.43 223.04 268.50
  Z"
/>
<path fill="#a7a7bd" d="
  M 270.75 281.71
  Q 268.57 279.43 268.55 276.32
  A 0.83 0.83 76.6 0 1 269.00 275.58
  C 274.14 272.90 282.05 272.10 282.51 264.04
  C 282.83 258.51 281.72 250.13 277.24 246.21
  C 273.37 242.82 268.36 241.74 263.81 244.81
  Q 262.55 245.67 259.54 250.50
  C 259.37 244.14 265.96 241.45 271.30 241.80
  C 278.02 242.23 282.53 247.57 283.70 254.01
  C 285.00 261.15 285.95 267.21 281.56 272.06
  Q 280.66 273.06 274.57 275.35
  C 273.31 275.83 271.06 275.51 270.48 277.35
  C 270.11 278.53 270.90 280.20 270.75 281.71
  Z"
/>
<path fill="#a7a7bd" d="
  M 132.25 248.71
  C 130.01 250.55 128.54 247.80 125.79 249.00
  C 126.23 245.60 130.46 248.12 132.25 248.71
  Z"
/>
<path fill="#53527e" d="
  M 252.21 260.50
  C 252.02 264.04 254.34 266.44 254.51 270.00
  Q 254.84 277.01 254.57 284.03
  C 254.36 289.14 251.08 292.32 251.79 297.69
  C 252.92 306.29 252.70 314.92 254.61 323.59
  L 251.75 319.19
  A 1.73 1.29 -66.5 0 1 251.53 318.25
  Q 251.81 312.57 250.71 307.00
  C 250.19 301.77 246.77 294.99 250.31 290.56
  Q 251.87 288.62 251.79 286.70
  C 251.57 281.30 252.20 276.32 251.17 270.90
  C 250.90 269.49 249.14 265.84 250.44 263.94
  Q 251.54 262.32 252.21 260.50
  Z"
/>
<path fill="#53527e" d="
  M 296.71 264.75
  C 295.92 272.58 301.72 274.69 304.84 280.79
  C 310.19 291.22 318.31 302.18 315.04 314.50
  Q 315.20 310.20 314.83 305.94
  C 314.50 302.14 311.53 297.98 310.05 294.29
  Q 309.07 291.85 307.27 289.07
  C 305.00 285.56 303.85 280.92 301.67 278.21
  C 298.99 274.89 294.66 274.39 294.31 269.19
  Q 294.10 266.00 296.71 264.75
  Z"
/>
<path fill="#5f5e8e" d="
  M 90.75 269.29
  Q 91.46 270.61 93.00 270.29
  Q 93.26 270.62 93.75 270.54
  C 95.75 271.62 97.86 272.41 99.95 273.32
  Q 104.11 275.11 107.33 271.82
  Q 106.93 269.78 107.54 268.50
  Q 108.64 270.63 108.53 273.01
  A 0.89 0.85 -13.5 0 1 108.06 273.74
  Q 105.68 274.98 103.01 275.22
  A 1.83 1.65 54.0 0 1 102.06 275.02
  Q 98.47 273.24 94.57 272.32
  C 94.26 272.25 93.65 272.36 93.38 272.01
  A 1.16 0.62 61.9 0 0 92.68 271.54
  C 87.66 271.25 84.27 269.77 78.25 269.96
  Q 84.35 267.40 90.75 269.29
  Z"
/>
<path fill="#9998b3" d="
  M 90.75 269.29
  Q 92.29 269.05 93.00 270.29
  Q 91.46 270.61 90.75 269.29
  Z"
/>
<path fill="#b4b3c8" d="
  M 93.75 270.54
  Q 97.32 270.17 101.56 271.69
  Q 103.64 272.43 107.33 271.82
  Q 104.11 275.11 99.95 273.32
  C 97.86 272.41 95.75 271.62 93.75 270.54
  Z"
/>
<path fill="#767695" d="
  M 119.54 283.00
  C 123.07 288.17 128.19 292.23 128.49 298.97
  C 128.57 300.95 127.35 301.97 125.50 300.79
  C 128.28 298.36 127.03 296.51 124.93 294.01
  C 123.65 292.48 123.03 288.98 121.06 288.32
  A 1.97 0.98 4.5 0 1 120.22 287.82
  Q 118.43 285.76 119.54 283.00
  Z"
/>
<path fill="#b4b3c8" d="
  M 310.21 325.25
  Q 308.07 330.30 304.91 333.57
  Q 303.40 335.12 302.20 333.33
  C 299.71 329.63 301.02 327.20 301.51 323.34
  C 302.16 318.14 305.83 313.62 300.50 309.75
  C 294.41 305.32 298.97 296.27 294.62 291.60
  C 291.43 288.19 286.41 290.80 282.46 289.50
  Q 292.59 285.19 298.71 293.59
  A 1.33 1.25 -60.8 0 1 298.94 294.50
  Q 298.37 299.32 299.06 303.19
  Q 299.96 308.21 304.96 309.91
  A 1.32 1.16 -1.5 0 1 305.68 310.51
  Q 308.29 315.46 305.82 320.18
  C 304.37 322.95 304.44 324.72 304.50 327.59
  Q 304.54 329.19 305.94 328.21
  L 310.21 325.25
  Z"
/>
<path fill="#9998b3" d="
  M 123.25 299.71
  Q 117.78 298.19 114.00 294.00
  Q 112.51 292.35 106.21 290.25
  C 110.04 288.91 113.86 293.24 116.57 294.99
  Q 120.01 297.21 123.25 299.71
  Z"
/>
<path fill="#767695" d="
  M 218.25 294.71
  L 218.75 296.54
  Q 218.91 297.45 218.54 298.25
  Q 217.67 296.52 218.25 294.71
  Z"
/>
<path fill="#a7a7bd" d="
  M 218.75 296.54
  Q 219.11 297.48 219.05 298.50
  A 1.89 1.46 -64.2 0 0 219.25 299.45
  Q 223.63 307.38 227.48 315.59
  Q 228.32 317.38 230.34 319.84
  Q 232.95 323.02 235.31 328.19
  C 236.29 330.32 239.19 332.64 240.06 335.27
  C 241.49 339.55 238.17 348.01 232.68 342.68
  Q 219.45 329.83 200.47 330.62
  C 213.63 327.79 225.99 331.13 234.98 341.12
  Q 237.30 343.70 238.54 340.46
  Q 239.91 336.90 236.87 334.07
  A 1.03 0.90 -68.3 0 1 236.58 333.25
  Q 236.74 331.65 235.18 331.37
  A 1.06 0.83 -3.3 0 1 234.46 330.87
  Q 233.63 329.13 233.67 327.18
  A 1.46 0.39 53.3 0 0 233.33 326.33
  L 232.47 324.92
  A 1.44 0.62 68.2 0 0 231.84 324.29
  C 227.47 322.66 221.14 306.15 219.21 301.55
  Q 218.55 299.97 218.54 298.25
  Q 218.91 297.45 218.75 296.54
  Z"
/>
<path fill="#83829c" d="
  M 70.40 302.26
  C 72.63 311.26 77.56 314.69 85.85 321.71
  Q 95.17 329.60 105.83 335.61
  Q 110.56 338.27 112.49 340.29
  C 114.31 342.19 118.06 347.27 117.80 350.00
  Q 117.52 352.76 114.01 350.99
  Q 101.63 344.76 90.58 336.46
  Q 87.58 334.21 84.68 330.75
  Q 80.36 325.58 79.06 324.69
  Q 73.59 320.90 69.69 315.30
  Q 76.78 320.72 82.86 327.19
  Q 89.32 334.07 91.84 336.11
  Q 99.94 342.66 109.50 347.04
  C 110.21 347.91 116.19 352.57 116.43 349.31
  A 1.04 0.84 25.0 0 0 116.04 348.52
  C 113.48 346.44 113.48 343.10 110.00 340.79
  Q 102.38 335.13 96.56 332.19
  C 92.75 330.26 91.31 327.77 88.13 325.92
  C 84.39 323.74 81.34 321.00 78.42 317.81
  C 73.01 311.88 69.65 309.33 70.40 302.26
  Z"
/>
<path fill="#d1d0dd" d="
  M 188.46 306.50
  L 181.17 320.39
  Q 180.60 321.46 180.04 322.12
  Q 173.48 329.80 172.08 338.00
  A 1.30 1.06 -63.1 0 0 172.28 338.93
  Q 173.13 340.03 174.75 339.79
  Q 170.97 341.27 169.06 338.13
  A 1.34 1.24 -56.9 0 1 168.90 337.20
  C 169.57 333.67 171.56 330.64 172.83 328.06
  C 174.75 324.14 176.93 320.75 179.24 316.57
  Q 182.12 311.33 186.22 306.92
  A 0.89 0.71 26.6 0 1 187.03 306.75
  Q 187.79 306.94 188.46 306.50
  Z"
/>
<path fill="#53527e" d="
  M 110.00 340.79
  C 113.48 343.10 113.48 346.44 116.04 348.52
  A 1.04 0.84 25.0 0 1 116.43 349.31
  C 116.19 352.57 110.21 347.91 109.50 347.04
  C 112.28 346.87 109.96 342.56 110.00 340.79
  Z"
/>
</svg>
